<svg width="1314" height="2028" xmlns="http://www.w3.org/2000/svg" xmlns:xlink="http://www.w3.org/1999/xlink" xml:space="preserve" overflow="hidden"><g transform="translate(-1517 -204)"><rect x="1970" y="1167" width="430" height="90.0001" fill="#FFFFFF"/><path d="M2047 1294C2047 1263.07 2109.01 1238 2185.5 1238 2261.99 1238 2324 1263.07 2324 1294 2324 1324.93 2261.99 1350 2185.5 1350 2109.01 1350 2047 1324.93 2047 1294Z" fill="#FFFFFF" fill-rule="evenodd"/><rect x="1989" y="1229" width="370" height="63.0002" fill="#FFFFFF"/><rect x="1893" y="1070" width="564" height="148" fill="#FFFFFF"/><rect x="1809" y="944" width="723" height="168" fill="#FFFFFF"/><rect x="1740" y="776" width="868" height="168" fill="#FFFFFF"/><rect x="1690" y="355" width="972" height="431" fill="#FFFFFF"/><rect x="2133.5" y="216.5" width="81.9998" height="2013" stroke="#9900CC" stroke-width="4.58333" stroke-miterlimit="8" fill="#EB7D7C"/><path d="M2704.74 216.5 2742.5 216.5 2744.68 216.5C2744.68 842.791 2507.55 1350.5 2215.03 1350.5 2201.7 1350.5 2188.38 1349.42 2175.09 1347.27 2451.33 1302.55 2664.8 809.62 2664.8 216.5L2666.99 216.5Z" fill="#EB7D7C" fill-rule="evenodd"/><path d="M2135.15 1350.5C1842.63 1350.5 1605.5 842.791 1605.5 216.5L1685.38 216.5C1685.38 842.791 1922.51 1350.5 2215.03 1350.5Z" fill="#BD6464" fill-rule="evenodd"/><path d="M2175.09 1347.27C2451.33 1302.55 2664.8 809.62 2664.8 216.5L2666.99 216.5 2704.74 216.5 2742.5 216.5 2744.68 216.5C2744.68 842.791 2507.55 1350.5 2215.03 1350.5L2135.15 1350.5C1842.63 1350.5 1605.5 842.791 1605.5 216.5L1685.38 216.5C1685.38 842.791 1922.51 1350.5 2215.03 1350.5" stroke="#9900CC" stroke-width="4.58333" stroke-miterlimit="8" fill="none" fill-rule="evenodd"/><path d="M2550.57 354.5 2577.44 354.5 2578.99 354.5C2578.99 824.494 2410.73 1205.5 2203.16 1205.5 2193.68 1205.5 2184.2 1204.69 2174.74 1203.06 2370.72 1169.41 2522.15 799.531 2522.15 354.5L2523.7 354.5Z" fill="#EB7D7C" fill-rule="evenodd"/><path d="M2146.32 1205.5C1938.76 1205.5 1770.5 824.494 1770.5 354.5L1827.34 354.5C1827.34 824.494 1995.6 1205.5 2203.16 1205.5Z" fill="#BD6464" fill-rule="evenodd"/><path d="M2174.75 1203.06C2370.72 1169.41 2522.15 799.531 2522.15 354.5L2523.7 354.5 2550.57 354.5 2577.44 354.5 2578.99 354.5C2578.99 824.494 2410.73 1205.5 2203.16 1205.5L2146.32 1205.5C1938.76 1205.5 1770.5 824.494 1770.5 354.5L1827.34 354.5C1827.34 824.494 1995.6 1205.5 2203.16 1205.5" stroke="#9900CC" stroke-width="4.58333" stroke-miterlimit="8" fill="none" fill-rule="evenodd"/><path d="M2438.62 329.5 2457.5 329.5 2458.59 329.5C2458.59 713.338 2340.36 1024.5 2194.52 1024.5 2187.85 1024.5 2181.19 1023.84 2174.55 1022.51 2312.25 995.025 2418.65 692.951 2418.65 329.5L2419.74 329.5Z" fill="#EB7D7C" fill-rule="evenodd"/><path d="M2154.58 1024.5C2008.73 1024.5 1890.5 713.338 1890.5 329.5L1930.44 329.5C1930.44 713.338 2048.67 1024.5 2194.52 1024.5Z" fill="#BD6464" fill-rule="evenodd"/><path d="M2174.55 1022.51C2312.25 995.026 2418.65 692.951 2418.65 329.5L2419.74 329.5 2438.62 329.5 2457.5 329.5 2458.59 329.5C2458.59 713.338 2340.36 1024.5 2194.52 1024.5L2154.58 1024.5C2008.73 1024.5 1890.5 713.338 1890.5 329.5L1930.44 329.5C1930.44 713.338 2048.67 1024.5 2194.52 1024.5" stroke="#9900CC" stroke-width="4.58333" stroke-miterlimit="8" fill="none" fill-rule="evenodd"/><path d="M2330.38 358.5 2341.5 358.5 2342.14 358.5C2342.14 619.731 2272.5 831.5 2186.59 831.5 2182.66 831.5 2178.74 831.048 2174.82 830.146 2255.94 811.44 2318.62 605.856 2318.62 358.5L2319.26 358.5Z" fill="#EB7D7C" fill-rule="evenodd"/><path d="M2163.06 831.5C2077.15 831.5 2007.5 619.731 2007.5 358.5L2031.03 358.5C2031.03 619.731 2100.67 831.5 2186.58 831.5Z" fill="#BD6464" fill-rule="evenodd"/><path d="M2174.82 830.146C2255.94 811.44 2318.62 605.856 2318.62 358.5L2319.26 358.5 2330.38 358.5 2341.5 358.5 2342.14 358.5C2342.14 619.731 2272.5 831.5 2186.59 831.5L2163.06 831.5C2077.15 831.5 2007.5 619.731 2007.5 358.5L2031.03 358.5C2031.03 619.731 2100.67 831.5 2186.58 831.5" stroke="#9900CC" stroke-width="4.58333" stroke-miterlimit="8" fill="none" fill-rule="evenodd"/><rect x="1576.5" y="206.5" width="1195" height="148" stroke="#9900CC" stroke-width="4.58333" stroke-miterlimit="8" fill="#EB7D7C"/><path d="M2827.5 1344.5 2719.5 1776.5 1628.5 1776.5 1520.5 1344.5Z" stroke="#9900CC" stroke-width="4.58333" stroke-miterlimit="8" fill="#EB7D7C" fill-rule="evenodd"/><path d="M2582.5 1716.5 2661.95 1410.5 2742.5 1410.5 2663.05 1716.5Z" stroke="#9900CC" stroke-width="4.58333" stroke-miterlimit="8" fill="#FFFFFF" fill-rule="evenodd"/><path d="M0 306 79.4513 0 160 0 80.5486 306Z" stroke="#9900CC" stroke-width="4.58333" stroke-miterlimit="8" fill="#FFFFFF" fill-rule="evenodd" transform="matrix(-1 0 0 1 1765.5 1410.5)"/><rect x="2072.5" y="1410.5" width="69" height="306" stroke="#9900CC" stroke-width="4.58333" stroke-miterlimit="8" fill="#FFFFFF"/><rect x="2202.5" y="1410.5" width="70.0002" height="306" stroke="#9900CC" stroke-width="4.58333" stroke-miterlimit="8" fill="#FFFFFF"/><path d="M0 306 49.5992 0 129 0 79.4007 306Z" stroke="#9900CC" stroke-width="4.58333" stroke-miterlimit="8" fill="#FFFFFF" fill-rule="evenodd" transform="matrix(-1 0 0 1 1893.5 1410.5)"/><path d="M0 306 28.6632 0 107 0 78.3368 306Z" stroke="#9900CC" stroke-width="4.58333" stroke-miterlimit="8" fill="#FFFFFF" fill-rule="evenodd" transform="matrix(-1 0 0 1 2024.5 1410.5)"/><path d="M2452.5 1716.5 2502.1 1410.5 2581.5 1410.5 2531.9 1716.5Z" stroke="#9900CC" stroke-width="4.58333" stroke-miterlimit="8" fill="#FFFFFF" fill-rule="evenodd"/><path d="M2324.5 1716.5 2353.16 1410.5 2431.5 1410.5 2402.84 1716.5Z" stroke="#9900CC" stroke-width="4.58333" stroke-miterlimit="8" fill="#FFFFFF" fill-rule="evenodd"/></g></svg>